<mxfile host="65bd71144e">
    <diagram name="Page-1" id="SToblwe2oJ2S2z_eRUv9">
        <mxGraphModel dx="862" dy="507" grid="1" gridSize="10" guides="1" tooltips="1" connect="1" arrows="1" fold="1" page="1" pageScale="1" pageWidth="850" pageHeight="1100" background="none" math="0" shadow="0">
            <root>
                <mxCell id="0"/>
                <mxCell id="1" parent="0"/>
                <mxCell id="FdOxZwsnCAVDqX_1Egsh-1" value="" style="verticalLabelPosition=bottom;verticalAlign=top;html=1;shape=mxgraph.basic.patternFillRect;fillStyle=diag;step=5;fillStrokeWidth=0.2;fillStrokeColor=#dddddd;" parent="1" vertex="1">
                    <mxGeometry x="480" y="20" width="350" height="460" as="geometry"/>
                </mxCell>
                <mxCell id="FdOxZwsnCAVDqX_1Egsh-12" value="&lt;h2&gt;Filters&lt;/h2&gt;" style="text;html=1;strokeColor=none;fillColor=none;align=left;verticalAlign=middle;whiteSpace=wrap;rounded=0;" parent="1" vertex="1">
                    <mxGeometry x="500" y="200" width="160" height="30" as="geometry"/>
                </mxCell>
                <mxCell id="FdOxZwsnCAVDqX_1Egsh-18" value="Interview Required Visitors (B1/B2)" style="rounded=0;whiteSpace=wrap;html=1;align=left;fillColor=#f5f5f5;fontColor=#333333;strokeColor=none;" parent="1" vertex="1">
                    <mxGeometry x="500" y="300" width="310" height="30" as="geometry"/>
                </mxCell>
                <mxCell id="FdOxZwsnCAVDqX_1Egsh-19" value="Threshold Value" style="rounded=0;whiteSpace=wrap;html=1;align=left;strokeColor=none;" parent="1" vertex="1">
                    <mxGeometry x="700" y="300" width="80" height="30" as="geometry"/>
                </mxCell>
                <mxCell id="FdOxZwsnCAVDqX_1Egsh-20" value="Interview Required Visitors (B1/B2)" style="rounded=0;whiteSpace=wrap;html=1;align=left;fillColor=#f5f5f5;fontColor=#333333;strokeColor=none;" parent="1" vertex="1">
                    <mxGeometry x="500" y="330" width="310" height="30" as="geometry"/>
                </mxCell>
                <mxCell id="FdOxZwsnCAVDqX_1Egsh-23" value="Threshold Value" style="rounded=0;whiteSpace=wrap;html=1;align=left;strokeColor=none;" parent="1" vertex="1">
                    <mxGeometry x="700" y="330" width="80" height="30" as="geometry"/>
                </mxCell>
                <mxCell id="FdOxZwsnCAVDqX_1Egsh-31" value="&lt;h1&gt;Visa Wait Time Monitor&lt;/h1&gt;" style="text;html=1;strokeColor=none;fillColor=none;align=left;verticalAlign=middle;whiteSpace=wrap;rounded=0;" parent="1" vertex="1">
                    <mxGeometry x="500" y="40" width="310" height="50" as="geometry"/>
                </mxCell>
                <mxCell id="FdOxZwsnCAVDqX_1Egsh-32" value="Select&amp;nbsp; Non-Immigrants Types" style="rounded=1;fillColor=#F1F2F4;strokeColor=none;html=1;fontColor=#596780;align=left;fontSize=12;spacingLeft=10;" parent="1" vertex="1">
                    <mxGeometry x="500" y="230" width="310" height="33" as="geometry"/>
                </mxCell>
                <mxCell id="FdOxZwsnCAVDqX_1Egsh-33" value="" style="shape=triangle;direction=south;fillColor=#596780;strokeColor=none;html=1;" parent="FdOxZwsnCAVDqX_1Egsh-32" vertex="1">
                    <mxGeometry x="1" y="0.5" width="12" height="6" relative="1" as="geometry">
                        <mxPoint x="-20" y="-3" as="offset"/>
                    </mxGeometry>
                </mxCell>
                <mxCell id="FdOxZwsnCAVDqX_1Egsh-45" value="Enter city..." style="html=1;shadow=0;dashed=0;shape=mxgraph.bootstrap.rrect;rSize=5;strokeColor=#CED4DA;strokeWidth=1;fillColor=#E9ECEF;fontColor=#505050;whiteSpace=wrap;align=left;verticalAlign=middle;spacingLeft=10;fontSize=14;fontFamily=Helvetica;" parent="1" vertex="1">
                    <mxGeometry x="500" y="130" width="310" height="40" as="geometry"/>
                </mxCell>
                <mxCell id="FdOxZwsnCAVDqX_1Egsh-46" value="Select U.S. Embassy or Consulate" style="text;html=1;strokeColor=none;fillColor=none;align=left;verticalAlign=middle;whiteSpace=wrap;rounded=0;fontFamily=Helvetica;" parent="1" vertex="1">
                    <mxGeometry x="500" y="100" width="310" height="30" as="geometry"/>
                </mxCell>
                <mxCell id="FdOxZwsnCAVDqX_1Egsh-47" value="" style="shape=image;html=1;verticalAlign=top;verticalLabelPosition=bottom;labelBackgroundColor=#ffffff;imageAspect=0;aspect=fixed;image=https://cdn4.iconfinder.com/data/icons/basic-user-interface-2/512/User_Interface-02-128.png;fontFamily=Helvetica;" parent="1" vertex="1">
                    <mxGeometry x="780" y="300" width="30" height="30" as="geometry"/>
                </mxCell>
                <mxCell id="FdOxZwsnCAVDqX_1Egsh-48" value="" style="shape=image;html=1;verticalAlign=top;verticalLabelPosition=bottom;labelBackgroundColor=#ffffff;imageAspect=0;aspect=fixed;image=https://cdn4.iconfinder.com/data/icons/basic-user-interface-2/512/User_Interface-02-128.png;fontFamily=Helvetica;" parent="1" vertex="1">
                    <mxGeometry x="780" y="330" width="30" height="30" as="geometry"/>
                </mxCell>
                <mxCell id="FdOxZwsnCAVDqX_1Egsh-57" value="" style="html=1;verticalLabelPosition=bottom;labelBackgroundColor=#ffffff;verticalAlign=top;shadow=0;dashed=0;strokeWidth=2;shape=mxgraph.ios7.misc.scroll_(vertical);fillColor=#a0a0a0;strokeColor=default;fontFamily=Helvetica;" parent="1" vertex="1">
                    <mxGeometry x="804" y="300" width="6" height="20" as="geometry"/>
                </mxCell>
                <mxCell id="FdOxZwsnCAVDqX_1Egsh-58" value="Set Alarm" style="rounded=1;fillColor=#0057D8;strokeColor=none;html=1;fontColor=#ffffff;align=center;verticalAlign=middle;fontStyle=0;fontSize=12;fontFamily=Helvetica;" parent="1" vertex="1">
                    <mxGeometry x="500" y="430" width="86" height="33" as="geometry"/>
                </mxCell>
                <mxCell id="FdOxZwsnCAVDqX_1Egsh-61" value="Reset" style="rounded=1;fillColor=#CC0000;strokeColor=none;html=1;fontColor=#ffffff;align=center;verticalAlign=middle;fontStyle=0;fontSize=12;fontFamily=Helvetica;" parent="1" vertex="1">
                    <mxGeometry x="600" y="430" width="86" height="33" as="geometry"/>
                </mxCell>
            </root>
        </mxGraphModel>
    </diagram>
</mxfile>